<?xml version="1.0" encoding="UTF-8" standalone="no"?>
<svg
   width="164"
   height="38"
   viewBox="0 0 164 38"
   fill="none"
   version="1.1"
   id="svg71"
   sodipodi:docname="waffle-logo-full.svg"
   inkscape:version="1.1 (c68e22c387, 2021-05-23)"
   xmlns:inkscape="http://www.inkscape.org/namespaces/inkscape"
   xmlns:sodipodi="http://sodipodi.sourceforge.net/DTD/sodipodi-0.dtd"
   xmlns:xlink="http://www.w3.org/1999/xlink"
   xmlns="http://www.w3.org/2000/svg"
   xmlns:svg="http://www.w3.org/2000/svg">
  <sodipodi:namedview
     id="namedview73"
     pagecolor="#ffffff"
     bordercolor="#666666"
     borderopacity="1.0"
     inkscape:pageshadow="2"
     inkscape:pageopacity="0.05882353"
     inkscape:pagecheckerboard="true"
     showgrid="false"
     inkscape:object-paths="true"
     inkscape:snap-bbox="false"
     inkscape:bbox-nodes="false"
     inkscape:zoom="5.6568543"
     inkscape:cx="75.92559"
     inkscape:cy="34.559844"
     inkscape:window-width="1801"
     inkscape:window-height="1003"
     inkscape:window-x="460"
     inkscape:window-y="289"
     inkscape:window-maximized="0"
     inkscape:current-layer="layer1" />
  <defs
     id="defs69">
    <linearGradient
       id="linearGradient150479"
       inkscape:swatch="solid">
      <stop
         style="stop-color:#e31c5b;stop-opacity:1;"
         offset="0"
         id="stop150477" />
    </linearGradient>
    <linearGradient
       id="linearGradient130291"
       inkscape:swatch="solid">
      <stop
         style="stop-color:#d30000;stop-opacity:0.49534884;"
         offset="0"
         id="stop130289" />
    </linearGradient>
    <filter
       id="filter0_dd_4155_249"
       x="0"
       y="0"
       width="38"
       height="38"
       filterUnits="userSpaceOnUse"
       color-interpolation-filters="sRGB">
      <feFlood
         flood-opacity="0"
         result="BackgroundImageFix"
         id="feFlood18" />
      <feColorMatrix
         in="SourceAlpha"
         type="matrix"
         values="0 0 0 0 0 0 0 0 0 0 0 0 0 0 0 0 0 0 127 0"
         result="hardAlpha"
         id="feColorMatrix20" />
      <feOffset
         dy="1"
         id="feOffset22" />
      <feGaussianBlur
         stdDeviation="1"
         id="feGaussianBlur24" />
      <feColorMatrix
         type="matrix"
         values="0 0 0 0 0.0627451 0 0 0 0 0.0941176 0 0 0 0 0.156863 0 0 0 0.06 0"
         id="feColorMatrix26" />
      <feBlend
         mode="normal"
         in2="BackgroundImageFix"
         result="effect1_dropShadow_4155_249"
         id="feBlend28" />
      <feColorMatrix
         in="SourceAlpha"
         type="matrix"
         values="0 0 0 0 0 0 0 0 0 0 0 0 0 0 0 0 0 0 127 0"
         result="hardAlpha"
         id="feColorMatrix30" />
      <feOffset
         dy="1"
         id="feOffset32" />
      <feGaussianBlur
         stdDeviation="1.5"
         id="feGaussianBlur34" />
      <feColorMatrix
         type="matrix"
         values="0 0 0 0 0.0627451 0 0 0 0 0.0941176 0 0 0 0 0.156863 0 0 0 0.1 0"
         id="feColorMatrix36" />
      <feBlend
         mode="normal"
         in2="effect1_dropShadow_4155_249"
         result="effect2_dropShadow_4155_249"
         id="feBlend38" />
      <feBlend
         mode="normal"
         in="SourceGraphic"
         in2="effect2_dropShadow_4155_249"
         result="shape"
         id="feBlend40" />
    </filter>
    <linearGradient
       id="paint0_linear_4155_249"
       x1="19"
       y1="2"
       x2="19"
       y2="34"
       gradientUnits="userSpaceOnUse">
      <stop
         stop-color="white"
         id="stop43" />
      <stop
         offset="1"
         stop-color="#D0D5DD"
         id="stop45" />
    </linearGradient>
    <linearGradient
       id="paint1_linear_4155_249"
       x1="10.1989"
       y1="24.2137"
       x2="27.8347"
       y2="6.57788"
       gradientUnits="userSpaceOnUse">
      <stop
         stop-color="#0076C1"
         id="stop48" />
      <stop
         offset="0.0737"
         stop-color="#0B82C6"
         id="stop50" />
      <stop
         offset="0.2766"
         stop-color="#269ED3"
         id="stop52" />
      <stop
         offset="0.4546"
         stop-color="#36AFDA"
         id="stop54" />
      <stop
         offset="0.587"
         stop-color="#3CB5DD"
         id="stop56" />
    </linearGradient>
    <linearGradient
       id="paint2_linear_4155_249"
       x1="10.1388"
       y1="24.2537"
       x2="27.8274"
       y2="6.56509"
       gradientUnits="userSpaceOnUse">
      <stop
         stop-color="#00A482"
         id="stop59" />
      <stop
         offset="1"
         stop-color="#79DD83"
         id="stop61" />
    </linearGradient>
    <linearGradient
       id="paint3_linear_4155_249"
       x1="24.8608"
       y1="13.5072"
       x2="28.5288"
       y2="10.1131"
       gradientUnits="userSpaceOnUse">
      <stop
         stop-color="#00A482"
         id="stop64" />
      <stop
         offset="1"
         stop-color="#79DD83"
         id="stop66" />
    </linearGradient>
    <linearGradient
       inkscape:collect="always"
       xlink:href="#linearGradient150479"
       id="linearGradient184142"
       gradientUnits="userSpaceOnUse"
       gradientTransform="matrix(1.2424908,0,0,1.2424903,-11.247226,-4.7037675)"
       x1="43.115711"
       y1="18.464935"
       x2="149.90561"
       y2="18.464935" />
  </defs>
  <g
     inkscape:groupmode="layer"
     id="layer1"
     inkscape:label="text"
     style="display:inline">
    <text
       xml:space="preserve"
       style="font-style:normal;font-weight:normal;font-size:30.1657px;line-height:0;font-family:sans-serif;letter-spacing:0.420164px;word-spacing:0px;display:inline;fill:#000000;fill-opacity:1;stroke:none;stroke-width:1.61596px;stroke-linecap:butt;stroke-linejoin:miter;stroke-opacity:1"
       x="42.275135"
       y="27.13529"
       id="text2786"
       transform="matrix(0.81929598,-0.01507591,0.03755562,1.2198691,0,0)"><tspan
         sodipodi:role="line"
         id="tspan2784"
         x="42.275135"
         y="27.13529"
         style="font-style:normal;font-variant:normal;font-weight:normal;font-stretch:normal;font-size:30.1657px;font-family:'Poor Richard';-inkscape-font-specification:'Poor Richard';fill:#ffffff;stroke:none;stroke-width:1.61596px;stroke-opacity:1"
         dx="0.048480563">WaffleDog</tspan></text>
  </g>
  <path
     style="fill:#ffffff;stroke-width:0"
     d=""
     id="path33567" />
  <g
     id="g130127"
     transform="matrix(0.66441008,0,0,0.76685521,-66.255673,-115.02794)">
    <path
       style="fill:#e31c5b;fill-opacity:1;stroke-width:0"
       d="m 110.16769,167.43479 c -1.21901,0.29658 -2.38842,0.87695 -3.41634,1.59451 -0.49827,0.36406 0.21085,0.83742 0.60283,0.79417 1.09109,0.006 1.99123,-0.7844 2.77692,-1.45742 0.29152,-0.22078 0.70353,-0.89795 0.0366,-0.93126 z"
       id="path126923" />
    <path
       style="fill:#e31c5b;fill-opacity:1;stroke-width:0"
       d="m 117.22459,165.55521 c -1.17011,0.34064 -2.16863,1.12743 -3.13825,1.84094 -0.37164,0.27978 -0.0331,0.73984 0.36133,0.64228 1.23704,-0.0312 2.73996,-0.42113 3.33248,-1.61815 0.0609,-0.32775 -0.16595,-0.87674 -0.55556,-0.86507 z"
       id="path127001" />
    <path
       style="fill:#e31c5b;fill-opacity:1;stroke-width:0"
       d="m 114.0847,161.78227 c -1.15674,0.24871 -2.28367,0.72175 -3.307,1.30862 -0.33101,0.37598 0.31029,0.57177 0.60036,0.4941 1.13635,0.011 2.61361,-0.23785 3.04782,-1.45558 0.0469,-0.20602 -0.13627,-0.38261 -0.34118,-0.34714 z"
       id="path127040" />
    <path
       style="fill:#e31c5b;fill-opacity:1;stroke-width:0"
       d="m 119.46269,160.13438 c -0.15596,-8.3e-4 -0.31029,0.086 -0.38414,0.22451 -0.0884,0.16077 -0.086,0.35353 -0.058,0.52996 0.0543,0.31503 0.18698,0.61196 0.35296,0.88334 0.20118,0.32459 0.46043,0.61857 0.78184,0.82822 0.35021,0.23064 0.74142,0.39511 1.14474,0.50694 0.21254,0.0578 0.43003,0.10127 0.65018,0.11423 0.13465,-7.4e-4 0.27232,0.008 0.40282,-0.0325 0.12831,-0.034 0.25374,-0.11348 0.30655,-0.23994 0.0376,-0.0881 0.0443,-0.19451 -0.006,-0.27921 -0.0671,-0.12025 -0.16586,-0.21854 -0.25926,-0.31828 -0.30907,-0.31561 -0.64217,-0.60659 -0.97965,-0.89121 -0.42026,-0.35068 -0.85124,-0.68932 -1.30197,-1.00016 -0.16279,-0.10894 -0.32561,-0.22126 -0.50601,-0.29944 -0.0456,-0.0184 -0.0947,-0.0275 -0.14396,-0.0265 z"
       id="path127079" />
    <path
       style="fill:#e31c5b;fill-opacity:1;stroke-width:0"
       d="m 127.40979,162.38086 c -0.75721,0.12435 -1.29571,0.80335 -1.62927,1.45044 -0.247,0.53721 -0.19435,1.17082 -0.0919,1.7362 0.0838,0.32959 0.49613,0.30483 0.65674,0.0545 0.64071,-0.7774 1.17502,-1.67214 1.47754,-2.63611 0.10633,-0.32156 -0.0384,-0.63131 -0.41309,-0.60498 z"
       id="path127118" />
    <path
       style="fill:#e31c5b;fill-opacity:1;stroke-width:0"
       d="m 124.16711,168.18896 c -0.29243,-0.0626 -0.71838,0.16341 -0.51025,0.49964 0.55064,0.69432 1.28186,1.23502 1.99939,1.74866 0.34689,0.19699 0.86471,0.58965 1.22144,0.20275 0.26623,-0.41001 -0.12675,-0.88185 -0.29186,-1.25553 -0.4352,-0.83968 -1.39824,-1.25575 -2.31508,-1.19747 l -0.0625,0.001 z"
       id="path127157" />
    <g
       id="g130107">
      <path
         style="fill:#febe54;fill-opacity:1;stroke-width:0"
         d="m 133.6122,174.92187 c -0.72799,-0.15073 -0.60758,0.6027 -0.58864,1.07678 0.0311,0.59918 -0.86104,0.40385 -1.27403,0.48029 -7.21535,0.11437 -14.44966,0.11402 -21.67204,0.0682 -1.18055,-0.0884 -2.43655,0.0977 -3.5625,-0.31874 -0.35718,-0.27272 -0.0397,-0.93523 -0.5463,-1.13741 -0.86866,-0.36388 -1.5022,0.75583 -1.47859,1.4977 -0.0661,1.18245 1.02844,2.08884 2.15561,2.09991 2.62622,0.24938 5.27546,0.11373 7.91088,0.17065 5.89711,-0.026 11.80224,0.0862 17.69232,-0.24957 0.92296,-0.068 2.17388,-0.18662 2.45568,-1.26813 0.33844,-0.86603 0.0592,-2.41223 -1.09239,-2.41971 z"
         id="path124310" />
      <g
         id="g130094">
        <path
           style="fill:#e31c5b;fill-opacity:1;stroke-width:0"
           d="m 138.26453,157.93018 c -0.3309,0.18151 -0.2569,0.66766 -0.36263,0.98439 -0.0795,0.70354 -0.29334,1.4561 -0.0586,2.1483 0.1347,0.35836 0.61546,0.40807 0.85205,0.12255 0.63055,-0.56364 0.71141,-1.5067 0.6189,-2.29565 -0.13958,-0.44956 -0.52741,-0.8614 -0.99231,-0.96436 z"
           id="path127196" />
        <path
           style="fill:#e31c5b;fill-opacity:1;stroke-width:0"
           d="m 141.63269,164.26416 c -0.85872,0.12398 -1.64461,0.63372 -2.23413,1.25488 -0.29097,0.26368 -0.35994,0.93819 0.12549,1.01172 0.80852,-10e-4 1.52024,-0.5198 2.13415,-0.99597 0.32459,-0.24901 0.7328,-0.77095 0.3656,-1.14954 -0.10741,-0.0922 -0.25174,-0.12812 -0.39111,-0.12109 z"
           id="path127235" />
        <g
           id="g130083">
          <path
             style="fill:#ff554b;fill-opacity:1;stroke-width:0"
             d="m 119.7218,180.88864 c -1.53214,0.01 -2.33187,1.9357 -3.93037,1.61794 -1.24903,-0.19366 -2.05436,-1.72847 -3.40853,-1.40152 -0.70517,0.24417 -1.48929,0.75803 -2.23392,0.31549 -0.46067,-0.18539 -1.12248,-0.78387 -1.59985,-0.34035 -0.22708,0.78167 0.16318,1.62399 0.25592,2.41055 0.61872,2.61459 1.20198,5.26841 2.25608,7.74781 0.52174,1.05894 1.90383,0.87033 2.87864,0.90664 4.78078,0.006 9.56699,0.043 14.34404,-0.12685 0.42591,-0.41944 0.44345,-1.1502 0.70054,-1.68822 0.69438,-2.19084 1.57454,-4.52624 1.07339,-6.84974 -0.50363,-0.88317 -1.6749,-0.53932 -2.5011,-0.60324 -1.4671,-0.0104 -2.9093,0.28983 -4.35274,0.48115 -1.20709,-0.33378 -1.44922,-1.92957 -2.64313,-2.32147 -0.26544,-0.10646 -0.55276,-0.16079 -0.83897,-0.14819 z"
             id="path119552" />
          <g
             id="g130075">
            <g
               id="g130069">
              <path
                 style="fill:#febe54;fill-opacity:1;stroke-width:0"
                 d="m 111.05784,179.75205 c -1.42948,0.0546 -2.88727,-0.0937 -4.30073,0.13113 -0.40993,0.30961 0.1521,0.88748 0.13318,1.28297 1.01184,3.38072 1.77737,6.85713 3.1677,10.11058 0.27147,0.70323 0.82425,1.32703 1.62261,1.37116 3.27165,0.46616 6.59229,0.24501 9.88581,0.28216 1.9803,-0.0696 3.98353,0.056 5.94869,-0.21466 1.04727,-0.10161 1.60017,-1.0882 1.91701,-1.9773 1.16471,-3.0384 2.16831,-6.15251 2.86415,-9.33288 0.0668,-0.51161 0.27652,-1.30024 -0.49027,-1.31259 -2.1682,-0.35484 -4.38813,-0.22883 -6.5786,-0.30564 -4.723,-0.0473 -9.44638,-0.0363 -14.16955,-0.0349 z m 8.66396,1.13659 c 1.32806,0.0656 1.85381,1.43418 2.75637,2.16876 0.80516,0.5873 1.83017,-0.0121 2.71366,0.007 1.36943,-0.083 2.78501,-0.31901 4.15663,-0.0654 0.70063,0.29714 0.44541,1.23706 0.50725,1.83539 0.0604,2.10397 -0.82296,4.10506 -1.4564,6.08844 -0.15081,0.27544 -0.14268,0.81419 -0.59706,0.69963 -5.13301,0.13041 -10.33135,0.10843 -15.47525,0.0419 -1.08942,0.0742 -1.42631,-1.20464 -1.71806,-2.0216 -0.84741,-2.68951 -1.63627,-5.4138 -2.04028,-8.20912 -0.0909,-0.31997 0.17675,-0.61685 0.49081,-0.42319 0.7393,0.20816 1.47949,0.88089 2.26907,0.45246 0.71696,-0.273 1.57297,-0.59709 2.26145,-0.0628 0.95869,0.58108 2.0839,1.55303 3.26753,0.93825 0.98768,-0.4158 1.72964,-1.42331 2.86428,-1.45002 z"
                 id="path124271" />
              <path
                 style="fill:#e31c5b;fill-opacity:1;stroke-width:0"
                 d="m 124.21902,151.54847 c -1.70685,0.0374 -3.38994,1.28676 -3.60995,3.03899 -0.10828,0.1913 -0.0254,0.78581 -0.25855,0.78923 -1.05616,-0.53418 -1.59254,-1.6345 -2.03661,-2.66779 -0.23477,-0.50763 -0.91893,-0.54813 -1.25436,-0.11694 -2.17485,1.87283 -3.68525,4.38819 -5.85085,6.26561 -0.85215,0.69477 -2.04966,0.79569 -2.80262,1.64609 -1.03294,0.94609 -1.78749,2.23903 -1.91452,3.64448 -0.66441,1.44461 -2.328,2.03094 -3.18018,3.34317 -0.90401,1.15848 -1.13366,2.71711 -0.78883,4.12274 0.31914,2.02807 0.12178,4.10387 0.49184,6.12565 0.2914,1.07064 1.24297,1.79011 1.60725,2.83694 1.62563,3.55798 2.21023,7.52237 3.77478,11.11902 0.50844,1.1244 1.48862,2.14379 2.79077,2.20903 6.07635,0.64354 12.19525,0.36608 18.29276,0.36858 3.09111,-0.10079 6.21517,0.11065 9.27689,-0.41131 0.40055,0.004 0.92263,-0.4081 0.52349,-0.78821 -0.86201,-0.45037 -1.91531,-0.25296 -2.8564,-0.35215 -1.88932,-0.0968 -3.80352,0.0407 -5.67252,-0.22601 -0.35747,-0.16572 0.19396,-0.58527 0.19539,-0.87962 1.55818,-3.96126 2.11774,-8.299 4.23057,-12.03478 0.55928,-1.00606 1.69169,-1.97605 1.36611,-3.27343 -0.25229,-1.09605 -0.49669,-2.23605 -0.0229,-3.31272 0.28514,-0.89616 0.67594,-1.90401 0.14319,-2.7934 -0.63999,-1.19945 -1.38564,-2.38978 -1.56163,-3.76923 -0.43888,-1.50699 -1.92404,-2.35716 -2.75946,-3.62228 -0.60293,-0.79959 -1.14269,-2.08671 -0.32268,-2.94505 0.96947,-1.26704 2.60345,-2.21015 3.01822,-3.86152 0.23457,-1.27628 -0.0167,-2.72578 -1.07698,-3.57952 -1.04922,-0.91641 -2.61155,-1.04016 -3.91742,-0.7208 -1.01043,0.3175 -2.09643,0.84842 -3.15079,0.36461 -0.86183,-0.2954 -1.75106,-0.56874 -2.67396,-0.51938 z m -0.0536,1.97639 c 0.63467,0.15076 1.34223,0.66522 1.42823,1.3415 -0.49587,0.83501 -1.68976,1.19322 -2.59113,0.88276 -0.83098,-0.80741 0.19461,-2.22577 1.1629,-2.22426 z m -6.99217,1.67734 c 0.99629,0.59964 1.85911,1.44269 2.8754,2.03468 2.44477,1.61794 5.38805,2.2383 7.83955,3.82542 0.56717,0.37326 1.37642,0.16219 1.88945,0.58083 0.53721,0.80431 -0.15205,2.01809 0.75512,2.62936 0.79833,0.77777 2.18712,1.01541 2.62031,2.1332 0.0523,0.48361 0.0592,1.39258 -0.63673,1.36432 -0.54722,0.11696 -0.40245,0.86496 0.0545,1.00525 0.93903,0.59093 2.31901,1.01562 2.60059,2.23104 0.19535,1.40291 -1.19448,2.4129 -2.40113,2.73436 -0.95825,0.30986 -1.96795,0.11401 -2.88082,-0.2386 -1.37184,-0.24675 -2.65714,0.59091 -4.02943,0.35064 -1.45106,-0.17809 -2.88176,-0.81601 -4.36507,-0.47684 -1.76059,0.38294 -3.56629,1.12721 -5.38532,0.61845 -1.12997,-0.23924 -1.92171,-1.12683 -2.54057,-2.03887 -0.42632,-0.27408 -0.80172,0.38887 -1.17391,0.54915 -1.2318,0.97641 -2.68507,2.10164 -4.3633,1.80212 -1.37421,-0.34398 -2.7505,-1.13323 -3.54972,-2.3486 -0.41975,-0.77644 -0.27452,-1.74587 -0.0746,-2.56831 0.5669,-1.54674 1.90604,-2.67216 3.42969,-3.22088 0.62486,-0.21873 1.17832,-0.81021 0.94339,-1.5123 -0.22023,-0.90243 -0.27878,-2.01383 0.52205,-2.66286 0.89562,-0.88743 2.08281,-1.4167 3.31008,-1.6426 0.79561,-0.28157 0.93904,-1.27388 1.35383,-1.91308 0.71423,-1.19695 1.85159,-2.07008 2.82995,-3.04145 0.11111,-0.0795 0.23048,-0.19542 0.37674,-0.19443 z m 16.43076,19.89745 c 0.9391,0.077 1.19899,1.33758 0.96025,2.09107 -0.24286,1.03008 -1.42159,1.15257 -2.28777,1.22887 -3.74912,0.25264 -7.52401,0.14645 -11.28529,0.20939 -4.64823,-0.0115 -9.30126,0.0963 -13.94651,-0.0752 -1.09469,0.0469 -2.39426,-0.69353 -2.37779,-1.9063 -0.0145,-0.61942 0.44733,-1.63354 1.18858,-1.39453 0.44611,0.27308 0.19304,1.04976 0.78698,1.204 1.70222,0.35433 3.47145,0.17721 5.20075,0.24637 6.90715,-0.008 13.81697,0.0388 20.72226,-0.11072 0.77436,-0.0531 0.48448,-0.98082 0.72778,-1.45906 0.0897,-0.0567 0.21137,-0.0289 0.31076,-0.0339 z m -18.35782,4.84026 c 5.23533,0.0509 10.48147,-0.0728 15.70627,0.22875 0.39086,0.10153 1.1303,-0.0407 1.25456,0.45978 -0.28898,2.23765 -1.06875,4.38967 -1.70529,6.54472 -0.55407,1.53318 -0.92272,3.15593 -1.77182,4.55054 -0.37974,0.59793 -1.05482,0.90004 -1.75341,0.84597 -4.23452,0.22789 -8.54047,0.24947 -12.78098,0.13988 -1.06445,-0.12534 -2.17653,-0.0785 -3.18039,-0.46512 -0.95741,-0.81825 -1.20254,-2.16585 -1.65164,-3.28611 -0.93748,-2.90884 -1.74284,-5.87138 -2.58188,-8.80178 0.46166,-0.33414 1.16032,-0.10806 1.70402,-0.19127 2.25342,-0.0256 4.50704,-0.0246 6.76056,-0.0254 z"
                 id="path126884" />
            </g>
            <path
               style="fill:#fffffd;fill-opacity:1;stroke-width:0"
               d="m 116.93916,155.02211 c -1.49459,1.40281 -2.92876,2.90061 -3.90289,4.71773 -0.80648,0.85308 -2.18911,0.75109 -3.05803,1.56302 -1.08446,0.61895 -1.75589,1.8744 -1.4187,3.11846 0.29741,0.96564 -0.56366,1.59932 -1.36588,1.87652 -1.92065,0.97502 -3.78922,3.24528 -2.92787,5.49769 1.24977,2.17158 4.37665,3.54544 6.60703,1.97078 0.86531,-0.43078 1.62131,-1.31772 2.47212,-1.57303 1.10601,0.91466 2.14414,2.22302 3.74545,2.12132 2.35604,0.0836 4.61084,-1.35477 6.95989,-0.60975 2.79079,0.33767 5.61262,-0.0865 8.40173,0.22477 1.41082,-0.15736 3.08613,-1.43408 2.84569,-2.99346 -0.38435,-1.4669 -2.22571,-1.64949 -2.96274,-2.78354 0.63953,-0.27996 1.19177,-0.92343 0.95743,-1.69216 -0.41267,-1.59968 -2.94252,-1.5928 -3.07011,-3.33113 0.12374,-0.93283 -0.44698,-2.02645 -1.49087,-1.97873 -2.44325,-1.08774 -4.87499,-2.21946 -7.30919,-3.333 -1.58401,-0.74154 -2.89095,-2.05351 -4.40171,-2.80192 z m 2.46383,5.33956 c 1.20087,0.57295 2.29216,1.44737 3.12605,2.46382 -0.65643,0.69706 -1.60918,-0.18772 -2.32676,-0.37703 -0.5631,-0.4546 -1.16782,-1.41455 -0.82657,-2.08783 l 0.0117,-3.4e-4 z m -5.35544,1.66418 c 0.49509,0.0952 -0.3937,0.843 -0.57072,0.93222 -0.75144,0.33849 -1.8344,0.72024 -2.56706,0.32456 0.94028,-0.5898 2.02672,-1.11845 3.13778,-1.25678 z m 13.42191,0.55657 c 0.51035,0.19527 -0.10648,0.97134 -0.21475,1.32307 -0.38088,0.57402 -0.68592,1.44276 -1.33412,1.71114 -0.44332,-1.1627 0.32177,-2.7522 1.54887,-3.03421 z m -10.2054,3.15471 c 0.70223,0.47956 -0.0624,1.39257 -0.65704,1.58995 -0.73796,0.27802 -1.64634,0.68163 -2.41066,0.482 0.1613,-0.72231 1.16896,-1.00546 1.69596,-1.4377 0.4396,-0.22996 0.86673,-0.57626 1.37174,-0.63425 z m -7.12942,1.99668 c 0.45284,0.10668 -0.38336,0.62512 -0.5141,0.81414 -0.75681,0.58418 -1.98446,1.60706 -2.86364,0.78824 0.93736,-0.77968 2.16106,-1.42691 3.37774,-1.60238 z m 14.42319,0.61112 c 1.12707,0.007 2.16374,1.08321 2.16275,2.15826 -0.98411,0.10449 -1.77142,-0.86071 -2.47142,-1.45046 -0.31047,-0.18976 -0.55679,-0.81315 0.0331,-0.71609 l 0.13155,-6.9e-4 z"
               id="path129848" />
          </g>
        </g>
      </g>
    </g>
  </g>
</svg>
